<?xml version="1.0" standalone="no"?>
<!DOCTYPE svg PUBLIC "-//W3C//DTD SVG 20010904//EN"
 "http://www.w3.org/TR/2001/REC-SVG-20010904/DTD/svg10.dtd">
<svg version="1.0" xmlns="http://www.w3.org/2000/svg"
 width="5417.000000pt" height="4150.000000pt" viewBox="0 0 5417.000000 4150.000000"
 preserveAspectRatio="xMidYMid meet">

<g transform="translate(0.000000,4150.000000) scale(0.100000,-0.100000)"
fill="#000000" stroke="none">
<path d="M27722 41479 c-407 -12 -623 -34 -967 -100 -631 -120 -1213 -355
-1602 -645 -104 -78 -280 -250 -358 -349 -212 -271 -350 -616 -397 -995 -18
-143 -18 -772 0 -940 8 -69 27 -217 43 -330 21 -151 29 -243 29 -350 0 -288
-52 -405 -228 -518 -177 -114 -591 -334 -792 -422 -681 -298 -1363 -381 -2895
-352 -752 15 -955 15 -1305 2 -1360 -51 -2238 -258 -3270 -771 -676 -337
-1033 -591 -1545 -1104 -325 -325 -395 -417 -555 -727 -204 -397 -305 -695
-356 -1043 -23 -153 -26 -630 -6 -775 113 -800 548 -1396 1297 -1777 484 -246
1062 -390 1740 -434 230 -15 946 -15 1180 0 99 6 313 25 475 41 614 61 784 71
861 50 42 -12 110 -73 134 -120 9 -18 21 -55 26 -83 5 -29 14 -351 19 -717 4
-366 13 -717 19 -780 36 -361 100 -561 241 -748 136 -181 315 -282 596 -339
113 -22 529 -25 669 -5 392 59 785 184 1325 422 102 45 466 220 810 390 615
304 760 368 890 396 119 25 169 17 400 -65 90 -32 129 -41 181 -41 114 0 150
19 270 141 60 62 122 115 142 124 83 35 186 10 402 -95 163 -80 330 -188 397
-257 156 -161 185 -359 101 -702 -36 -150 -122 -268 -236 -322 -93 -44 -173
-52 -417 -46 -227 6 -411 22 -995 88 -618 69 -756 80 -1061 86 -546 11 -774
-39 -1249 -272 -590 -289 -969 -580 -2080 -1595 -1035 -946 -1695 -1507 -2135
-1815 -433 -303 -584 -445 -683 -641 -14 -28 -51 -125 -82 -215 -68 -197 -117
-292 -199 -387 -104 -121 -234 -221 -516 -396 -1011 -630 -1871 -978 -3400
-1376 -673 -175 -1251 -297 -2020 -425 -979 -163 -1809 -261 -2520 -296 -321
-16 -448 -5 -464 38 -15 38 74 130 319 333 356 294 616 583 888 990 396 591
593 1080 674 1675 25 188 25 852 0 1038 -79 582 -254 918 -607 1167 -233 165
-319 304 -320 517 0 208 -109 483 -315 794 -281 425 -643 764 -1000 939 -371
181 -845 241 -1247 160 -662 -135 -1242 -649 -1801 -1595 -156 -265 -247 -409
-283 -451 -32 -36 -35 -38 -48 -21 -23 29 -27 101 -36 614 -11 578 -18 628
-97 761 -55 93 -173 215 -237 247 -141 69 -279 31 -421 -114 -259 -264 -631
-1172 -864 -2106 -81 -326 -170 -785 -301 -1555 -123 -722 -182 -1016 -202
-1004 -8 5 -9 107 -5 338 7 342 9 402 54 1221 29 547 36 1111 15 1320 -50 493
-161 755 -362 849 -55 26 -80 31 -161 34 -71 3 -112 0 -155 -13 -218 -63 -405
-262 -600 -640 -280 -541 -403 -1176 -404 -2091 0 -260 -19 -583 -60 -1009
-78 -811 -79 -2061 -4 -2675 127 -1035 370 -1862 783 -2665 945 -1838 2661
-3216 4676 -3755 592 -158 1067 -220 1685 -220 410 0 722 20 1505 95 253 24
640 60 860 80 220 19 474 44 565 55 1196 148 2318 465 3430 971 246 112 901
437 1175 584 657 352 1051 590 1344 813 204 155 319 220 437 248 109 25 134
38 134 71 0 47 117 213 150 213 10 0 24 -16 35 -40 17 -37 35 -53 35 -30 0 19
40 50 64 50 14 0 38 -11 54 -25 17 -14 32 -25 36 -25 11 0 40 67 87 201 55
159 84 219 104 219 8 0 61 -44 118 -98 148 -140 207 -163 327 -122 98 33 192
91 445 275 77 56 268 191 425 300 403 280 608 429 1160 840 434 323 672 496
752 548 16 10 29 13 33 7 3 -5 11 -78 17 -162 17 -250 -3 -787 -37 -991 -21
-122 -111 -469 -190 -732 -124 -411 -223 -831 -315 -1325 -158 -851 -235
-1094 -477 -1501 -170 -285 -188 -339 -203 -604 -14 -240 -23 -272 -108 -356
-55 -54 -89 -76 -192 -126 -69 -34 -186 -82 -260 -108 -428 -149 -1828 -750
-2973 -1277 -1353 -623 -2424 -1230 -4107 -2328 -1747 -1139 -2756 -1910
-3525 -2691 -507 -515 -836 -966 -1100 -1504 -298 -609 -387 -1005 -372 -1655
10 -399 32 -572 103 -809 137 -451 367 -848 683 -1174 318 -327 704 -562 1134
-687 475 -137 1035 -181 2062 -160 676 14 908 26 1200 66 346 47 1346 237
2200 419 573 122 1018 214 1285 265 619 118 1047 219 1620 381 685 194 1159
297 2169 469 731 125 1317 235 1746 330 413 91 827 169 1250 235 530 83 821
156 1614 405 547 171 1425 415 2216 615 638 161 799 190 930 165 97 -18 238
-93 490 -261 346 -230 719 -441 1220 -689 456 -225 691 -325 1240 -523 946
-343 2439 -855 2755 -946 457 -131 979 -229 1785 -336 511 -67 1029 -142 1525
-220 1816 -284 3189 -368 5300 -321 1059 23 2013 36 2764 36 l650 0 295 153
c337 175 509 275 731 425 309 208 548 402 799 647 511 500 797 954 900 1427
54 252 69 594 36 873 -80 685 -361 1414 -853 2215 -303 493 -705 1063 -991
1404 -581 695 -1618 1539 -3080 2508 -533 354 -1050 649 -2136 1223 -1180 623
-1660 886 -2355 1290 -712 413 -828 472 -1385 705 -587 245 -1228 496 -1545
604 -270 93 -366 141 -456 230 -110 109 -154 208 -239 527 -66 250 -156 539
-309 1000 -243 730 -376 1228 -490 1829 -66 350 -266 1566 -285 1735 -30 260
-43 507 -39 759 l3 229 225 -218 c972 -942 2823 -2637 3580 -3279 128 -108
268 -185 375 -207 75 -15 193 -5 250 20 50 22 72 49 160 201 100 173 139 207
228 197 71 -9 174 -68 508 -290 721 -478 1160 -702 2224 -1132 1902 -769 2980
-1085 4025 -1180 849 -78 1975 37 2860 290 978 280 1902 767 2610 1377 912
785 1612 1689 2302 2968 1086 2013 1538 3758 1478 5698 -30 963 -157 1564
-406 1918 -95 136 -234 249 -358 292 -155 54 -313 10 -458 -126 -95 -90 -175
-191 -253 -322 -90 -152 -122 -219 -239 -494 -57 -133 -118 -270 -136 -306
-31 -62 -33 -64 -42 -40 -6 14 -14 140 -19 280 -12 353 -32 522 -90 750 -115
448 -338 697 -605 677 -165 -12 -283 -110 -388 -324 -155 -311 -288 -944 -421
-2003 -40 -316 -95 -713 -101 -730 -4 -10 -10 -4 -20 20 -52 120 -199 594
-293 943 -174 643 -421 1158 -894 1867 -290 435 -542 734 -765 910 -355 279
-749 441 -1072 442 -197 1 -317 -43 -447 -166 -90 -85 -134 -153 -174 -268
-47 -138 -60 -244 -69 -593 -5 -176 -12 -331 -16 -345 -21 -74 -84 -106 -251
-128 -171 -23 -372 -150 -604 -384 -204 -205 -348 -408 -493 -698 -284 -569
-408 -1154 -393 -1850 15 -668 127 -1087 670 -2510 190 -498 207 -614 99 -669
-91 -46 -317 -58 -852 -42 -910 27 -1354 81 -1880 227 -481 134 -926 311
-1887 748 -501 228 -775 346 -802 346 -26 0 -107 55 -174 118 -86 82 -148 165
-225 296 -205 353 -531 736 -793 931 -181 135 -365 241 -844 485 -788 402
-1103 593 -2210 1345 -2090 1419 -2820 1878 -3317 2081 -176 72 -1342 427
-1618 493 -251 60 -298 65 -545 65 -188 1 -258 -4 -383 -22 -270 -40 -392 -80
-699 -226 -389 -185 -470 -208 -592 -167 -214 73 -539 285 -704 461 -113 119
-129 176 -77 267 52 90 176 167 391 242 63 21 135 48 161 60 182 78 324 228
715 751 272 364 522 657 627 736 195 148 466 249 1117 419 913 239 2226 712
3174 1145 379 173 585 284 815 436 674 446 1143 1019 1413 1724 61 159 116
341 141 465 77 386 83 1251 10 1760 -34 240 -129 613 -242 945 -421 1236
-1214 2379 -2187 3155 -864 688 -1872 1171 -3070 1469 -355 88 -771 172 -1073
216 -471 68 -1581 104 -2430 79z m2950 -885 c588 -123 1247 -329 1782 -557
1143 -486 2064 -1178 2706 -2032 472 -628 897 -1529 1089 -2305 87 -354 117
-611 108 -954 -10 -398 -74 -716 -213 -1064 -220 -549 -596 -1017 -1096 -1365
-285 -199 -988 -549 -1833 -914 -425 -184 -866 -351 -897 -341 -7 3 48 35 122
73 264 132 413 243 836 624 270 242 371 308 496 321 76 9 108 30 108 72 0 30
27 75 99 168 65 84 265 314 416 480 79 86 115 136 115 157 0 6 -16 30 -35 53
-58 69 -70 128 -69 330 1 189 15 333 69 675 68 439 90 784 82 1333 -9 674 -40
780 -381 1317 -230 361 -261 435 -286 675 -7 63 -19 138 -28 165 -16 48 -19
50 -59 56 -23 3 -52 14 -64 25 -29 26 -158 208 -220 311 -86 141 -101 189
-108 338 -7 157 -17 164 -77 58 -53 -94 -65 -108 -75 -91 -5 7 -9 23 -9 36 0
14 -23 48 -59 86 -60 65 -102 137 -137 234 -10 30 -33 71 -52 92 -26 32 -43
41 -90 51 -113 23 -235 103 -307 200 -45 62 -55 85 -75 184 -10 52 -19 67 -64
110 -28 28 -96 77 -150 109 -124 74 -245 165 -279 209 -14 19 -38 60 -53 91
-37 79 -55 89 -146 80 -84 -7 -107 1 -193 68 -158 124 -493 470 -544 561 -30
54 -49 62 -111 48 -72 -17 -77 -15 -148 57 -55 56 -89 79 -189 130 -68 35
-123 65 -123 67 0 8 15 6 142 -21z m-5214 -568 c5 -41 -25 -114 -50 -121 -11
-4 -34 -4 -52 -1 -52 10 -59 -7 -67 -163 -4 -75 -7 -137 -8 -138 -6 -13 -26 7
-60 58 -34 50 -41 70 -41 109 0 41 6 56 44 106 71 96 181 188 215 182 9 -2 17
-16 19 -32z m-398 -533 c44 -54 63 -127 58 -227 -3 -76 -5 -86 -35 -119 -46
-52 -57 -155 -19 -179 6 -4 37 -4 69 -1 68 7 86 -5 122 -82 29 -60 96 -128
148 -150 34 -14 38 -14 43 0 4 8 1 35 -5 60 -6 24 -11 60 -11 79 0 46 14 46
110 1 105 -51 166 -99 200 -159 35 -61 38 -112 10 -175 -22 -47 -26 -81 -10
-81 21 0 50 -46 60 -95 11 -53 40 -95 65 -95 50 0 75 45 75 135 0 44 4 65 12
65 22 0 143 -134 182 -200 70 -121 101 -139 281 -160 429 -51 567 -100 741
-262 108 -99 164 -132 243 -141 65 -8 101 -29 101 -61 0 -60 52 -72 404 -90
l270 -15 80 -40 c52 -26 119 -73 186 -131 133 -114 149 -120 262 -83 120 39
183 36 326 -16 88 -32 127 -41 177 -41 62 0 65 -1 143 -60 99 -74 114 -80 216
-80 87 0 100 -5 129 -52 21 -34 28 -35 77 -2 24 16 46 24 58 20 11 -4 54 -58
95 -120 111 -164 160 -192 299 -166 88 17 109 7 155 -70 47 -80 117 -156 171
-187 115 -65 126 -89 126 -293 1 -150 10 -200 36 -200 14 0 42 -60 36 -76 -4
-10 -14 -12 -31 -8 -33 8 -41 -14 -48 -147 -3 -62 -13 -122 -22 -147 -34 -85
-181 -202 -685 -547 -401 -274 -658 -416 -848 -470 -52 -15 -96 -25 -98 -22
-2 2 33 33 78 68 142 109 316 266 504 453 244 244 293 321 281 448 -6 73 -30
106 -104 145 -131 70 -266 92 -624 102 -337 9 -339 10 -409 123 -94 154 -170
208 -243 173 -41 -19 -66 -54 -97 -137 -29 -79 -38 -84 -95 -53 -56 29 -122
32 -277 13 -121 -15 -142 -7 -219 83 -99 116 -215 227 -239 231 -32 4 -66 56
-75 114 -15 105 -32 92 -80 -61 -41 -131 -79 -188 -151 -227 -91 -48 -134 -46
-181 11 -16 19 -25 23 -36 16 -8 -5 -27 -19 -43 -30 -24 -17 -48 -20 -171 -24
-167 -4 -310 9 -551 50 -473 80 -678 152 -987 345 -190 119 -308 177 -428 210
-81 22 -109 34 -134 60 -30 29 -33 38 -33 91 0 66 18 136 95 375 30 91 62 206
70 255 9 48 21 111 26 139 6 29 26 78 46 110 41 68 44 96 14 132 -109 138
-152 384 -182 1053 -17 378 -7 440 89 573 43 59 85 86 134 86 30 0 42 -7 68
-37z m-5907 -3733 c106 -12 174 -37 232 -84 24 -20 50 -36 59 -36 8 0 32 25
51 56 20 31 40 53 45 48 10 -11 80 -187 76 -192 -2 -1 -15 3 -29 9 -22 10 -31
9 -52 -5 -14 -9 -25 -21 -25 -25 0 -5 -15 -15 -34 -21 -72 -23 -153 22 -216
120 -18 28 -35 50 -39 50 -3 0 -53 -39 -111 -86 -105 -86 -147 -114 -172 -114
-7 0 -51 23 -98 50 -100 59 -125 64 -115 21 l6 -29 -108 2 c-92 1 -114 -2
-148 -20 -22 -11 -65 -34 -95 -49 -72 -38 -148 -40 -203 -6 -42 25 -179 182
-169 192 4 3 72 12 152 18 176 15 499 54 652 81 101 17 147 23 228 28 14 1 64
-3 113 -8z m758 -21 c69 -21 111 -96 74 -132 -23 -24 -46 -21 -131 13 -41 16
-80 27 -88 24 -8 -3 -17 -23 -21 -45 -8 -46 -20 -44 -29 5 -10 55 15 103 66
126 50 23 76 24 129 9z m819 -39 c13 -8 10 -14 -15 -35 -49 -40 -126 -75 -167
-75 -21 0 -38 4 -38 8 0 14 89 73 139 93 54 21 61 22 81 9z m-330 -51 c0 -16
-56 -78 -107 -118 l-44 -34 -25 19 c-34 25 -79 106 -71 127 5 15 24 17 127 17
82 0 120 -4 120 -11z m-2570 -89 c0 -63 -21 -100 -55 -100 -43 0 -132 77 -122
104 4 9 16 18 29 20 13 3 48 12 78 19 30 8 58 15 63 16 4 0 7 -26 7 -59z
m-478 -134 c-42 -44 -72 -87 -95 -138 -57 -124 -106 -143 -207 -77 -25 16 -62
38 -83 49 -42 23 -41 23 -52 -50 -16 -114 -139 -139 -294 -61 -111 57 -158
116 -111 141 10 6 107 31 214 55 176 41 204 45 303 43 l108 -3 110 52 c61 29
123 52 139 53 29 0 28 -1 -32 -64z m-952 -249 c0 -53 -33 -245 -45 -264 -17
-26 -25 -27 -74 -13 -42 12 -71 -2 -71 -34 0 -35 -36 -74 -78 -86 -53 -14
-148 -12 -299 8 -73 10 -133 16 -133 15 0 -2 45 -71 99 -153 88 -132 123 -202
109 -216 -5 -4 -31 14 -136 98 -78 62 -179 117 -222 120 -33 3 -35 1 -38 -30
-2 -18 8 -72 22 -120 34 -115 50 -259 44 -395 -6 -117 -12 -147 -32 -147 -16
0 -75 63 -114 120 -40 60 -76 93 -99 88 -26 -5 -56 -102 -91 -306 -17 -95 -38
-184 -46 -197 -15 -23 -21 -24 -74 -19 -65 7 -99 -5 -144 -53 -68 -72 -75
-158 -22 -301 46 -125 209 -460 268 -552 61 -93 77 -93 125 5 l35 70 8 -55
c18 -114 41 -203 66 -253 15 -29 72 -108 128 -177 55 -69 170 -217 255 -330
174 -232 263 -330 298 -330 23 0 24 2 17 63 -3 34 -9 77 -12 96 -8 38 -14 38
101 7 33 -8 112 -20 175 -25 63 -5 127 -14 142 -21 14 -7 37 -33 50 -58 49
-96 250 -272 310 -272 31 0 31 0 24 46 -4 29 -2 52 5 60 18 21 98 17 190 -11
46 -13 158 -45 248 -70 90 -26 179 -52 198 -60 48 -20 83 -59 83 -93 0 -49 24
-47 149 13 64 30 130 55 148 55 45 0 140 -74 188 -145 21 -33 52 -100 68 -149
15 -50 32 -99 36 -109 5 -14 21 17 61 113 30 72 57 133 61 135 3 2 35 -20 70
-50 64 -55 161 -109 253 -141 59 -20 114 -67 133 -113 27 -63 15 -200 -23
-273 -40 -77 -194 -104 -864 -148 -639 -42 -955 -49 -1315 -30 -1037 55 -1734
301 -2221 785 -309 307 -486 681 -525 1109 -36 387 91 843 340 1223 196 299
411 514 811 814 406 305 650 451 1050 627 74 33 169 78 210 101 80 43 100 49
100 28z m11598 -1993 c13 -9 21 -21 19 -27 -12 -37 -143 -71 -185 -48 -26 14
-29 53 -7 71 38 31 128 33 173 4z m-393 -49 c52 -26 51 -45 -4 -66 -69 -25
-91 -50 -91 -101 0 -26 7 -51 18 -64 111 -135 598 -256 1222 -305 192 -15 649
-15 830 0 252 21 324 39 634 158 120 46 266 97 324 113 119 34 202 40 202 15
0 -70 -144 -188 -365 -297 -137 -68 -251 -112 -477 -183 -278 -87 -333 -110
-359 -151 -30 -49 -36 -142 -15 -235 16 -71 38 -130 124 -324 55 -124 82 -239
89 -375 9 -183 -14 -309 -126 -685 -58 -193 -62 -270 -26 -435 36 -168 44
-323 20 -420 -21 -87 -108 -264 -189 -383 -113 -168 -289 -358 -452 -489 -282
-227 -654 -380 -1054 -435 -189 -25 -664 -25 -865 0 -602 77 -1171 280 -1632
584 -229 150 -406 308 -570 508 -119 145 -253 272 -331 313 -34 18 -67 43 -73
55 -9 15 -9 56 -3 147 4 69 9 178 9 242 0 102 -3 120 -21 145 -39 53 -80 65
-265 74 -191 10 -267 24 -332 62 -43 25 -77 75 -77 111 0 29 86 110 165 155
42 24 133 68 202 98 159 68 225 112 279 186 74 100 109 240 144 577 33 316 56
419 117 531 55 102 196 198 395 268 142 49 554 165 973 272 440 113 800 212
961 264 229 75 335 95 474 92 81 -2 114 -7 145 -22z m-8302 -2379 c27 -37 101
-129 165 -205 181 -215 217 -286 209 -406 -4 -68 -37 -165 -55 -165 -11 0 -35
55 -87 196 -46 129 -108 234 -178 305 -64 66 -121 96 -197 104 -103 11 -119
16 -150 41 -36 31 -40 71 -10 120 31 49 80 58 80 14 0 -33 12 -50 35 -50 28 0
59 37 76 88 6 20 16 43 22 51 12 15 9 18 90 -93z m538 -997 c42 -29 57 -71 69
-181 11 -111 0 -238 -25 -292 -10 -21 -46 -68 -79 -104 -78 -85 -112 -131
-119 -161 -3 -14 4 -51 19 -89 29 -77 30 -121 5 -153 -26 -34 -39 -82 -47
-179 -7 -97 -17 -130 -38 -130 -20 0 -42 78 -58 210 -17 143 -17 484 1 580 29
156 81 259 157 307 24 15 46 33 48 40 3 6 -8 25 -24 41 -37 39 -47 85 -25 119
14 21 22 24 51 20 19 -3 48 -16 65 -28z m171 -745 c28 -50 35 -84 18 -84 -12
0 -57 77 -66 114 -11 45 16 28 48 -30z m69 -280 c36 -18 67 -81 76 -152 7 -60
-2 -65 -87 -48 -90 19 -96 29 -80 118 19 103 31 114 91 82z m7039 -804 c231
-11 365 -26 438 -46 50 -14 55 -18 77 -67 25 -53 58 -188 94 -382 35 -192 95
-343 186 -470 153 -215 510 -450 976 -641 160 -65 264 -92 427 -109 252 -26
305 -42 283 -83 -34 -64 -586 -359 -919 -491 -393 -156 -829 -221 -1492 -221
-954 0 -1606 151 -2200 508 -278 167 -543 382 -635 516 -47 68 -44 94 10 113
135 47 747 181 753 165 2 -6 27 -48 55 -93 63 -100 97 -124 177 -123 122 2
345 119 476 249 159 159 208 281 254 640 60 473 68 494 185 516 143 26 532 35
855 19z m20412 -894 c404 -104 669 -266 970 -593 527 -571 1070 -1604 1367
-2598 133 -446 145 -553 171 -1480 18 -644 32 -820 70 -895 25 -49 94 -108
142 -121 102 -27 222 101 288 307 146 457 363 1588 540 2819 175 1215 238
1512 340 1592 27 22 86 15 119 -13 85 -71 98 -281 106 -1619 9 -1463 23 -1685
109 -1771 40 -40 108 -54 153 -31 136 71 236 336 398 1057 85 381 151 636 231
894 163 529 333 898 474 1030 41 38 56 46 88 46 54 0 97 -32 149 -109 76 -114
169 -390 207 -611 59 -352 43 -1216 -34 -1810 -46 -346 -156 -800 -362 -1480
-266 -884 -475 -1405 -924 -2310 -279 -564 -463 -891 -682 -1215 -918 -1361
-2046 -2288 -3377 -2775 -390 -143 -1042 -315 -1481 -390 -309 -53 -446 -64
-824 -64 -479 0 -747 31 -933 109 -150 61 -373 121 -712 191 -827 170 -1823
471 -2678 810 -316 125 -496 205 -897 397 -184 88 -427 202 -540 254 -206 95
-267 122 -675 294 -283 119 -601 278 -740 370 -141 94 -236 188 -278 277 -26
56 -32 81 -35 152 -5 129 35 275 393 1430 321 1033 416 1358 546 1865 50 192
92 351 93 353 5 5 81 -61 246 -213 453 -418 844 -687 1400 -964 628 -313 1291
-536 2095 -706 678 -143 1271 -215 1768 -215 357 0 588 25 846 90 459 116 874
363 1040 620 111 171 108 359 -7 462 -49 44 -78 60 -156 84 -152 48 -229 187
-247 448 -19 288 -73 491 -369 1391 -221 669 -297 957 -335 1265 -28 233 -16
504 34 712 103 435 373 937 661 1230 117 118 176 155 237 145 82 -14 114 -62
121 -187 8 -149 -26 -379 -128 -866 -92 -436 -94 -453 -93 -799 2 -1185 132
-1854 509 -2606 192 -385 475 -755 681 -892 187 -124 457 -171 683 -117 417
100 848 620 1024 1235 46 161 58 268 63 583 9 508 -26 829 -152 1402 -124 559
-242 903 -449 1305 -159 308 -361 627 -755 1189 -343 489 -691 1024 -691 1063
0 21 50 15 192 -21z m-40578 -365 c246 -51 331 -95 496 -261 236 -236 550
-610 598 -712 46 -98 16 -186 -104 -306 -156 -156 -307 -164 -819 -43 -295 69
-380 83 -510 83 -337 0 -653 -105 -935 -313 -112 -82 -327 -299 -419 -422
-190 -254 -339 -558 -444 -907 -81 -268 -91 -377 -84 -980 7 -638 31 -827 146
-1161 198 -573 466 -937 781 -1058 157 -61 358 -78 529 -46 544 104 1128 634
1476 1340 128 259 197 454 257 728 23 100 23 114 23 752 0 643 0 651 23 729
28 99 56 149 120 208 90 85 211 128 357 128 221 0 362 -90 460 -293 76 -159
105 -315 105 -570 0 -180 -15 -314 -55 -492 -107 -479 -427 -1113 -849 -1680
-186 -249 -298 -366 -686 -710 -124 -109 -304 -269 -400 -355 -96 -85 -245
-225 -331 -310 -230 -228 -299 -330 -299 -443 0 -72 20 -117 73 -162 150 -129
573 -251 1043 -300 1037 -109 3022 79 4608 436 893 201 1769 489 2571 845 626
277 1479 750 1902 1054 69 50 130 87 134 83 38 -38 166 -1352 209 -2133 30
-564 53 -949 75 -1254 38 -519 33 -662 -28 -750 -35 -52 -78 -83 -210 -153
-151 -81 -260 -155 -301 -206 -36 -45 -67 -63 -140 -82 -102 -27 -345 -137
-941 -428 -562 -273 -972 -462 -1290 -592 -318 -130 -449 -203 -573 -318 -99
-92 -173 -132 -230 -124 -66 8 -144 -13 -267 -73 -66 -32 -172 -75 -235 -96
-197 -63 -258 -101 -310 -193 -18 -33 -40 -63 -47 -66 -9 -3 -28 10 -46 31
-41 46 -76 64 -127 64 -46 0 -79 -15 -160 -72 -70 -49 -146 -75 -254 -87 -92
-11 -160 -35 -190 -69 -23 -26 -91 -48 -176 -57 -87 -8 -241 -44 -430 -98 -85
-25 -225 -61 -311 -81 -220 -52 -279 -95 -279 -204 0 -62 -11 -101 -30 -107
-10 -3 -62 16 -123 46 -192 93 -298 91 -614 -12 -632 -205 -1440 -338 -2063
-339 -189 0 -245 -9 -255 -40 -8 -25 -26 -25 -57 -1 -40 32 -99 42 -204 35
l-96 -7 -32 36 c-39 46 -114 67 -241 67 -138 0 -205 -25 -205 -77 0 -13 -12
-35 -26 -50 -20 -20 -31 -24 -56 -19 -73 14 -113 49 -263 227 l-30 35 -150 -7
c-82 -5 -292 -16 -465 -25 -459 -24 -586 -13 -795 71 -120 48 -830 401 -1025
510 -522 291 -847 539 -1250 951 -914 937 -1456 1886 -1765 3089 -54 210 -128
573 -154 760 -92 641 -120 1877 -61 2660 30 394 119 1176 195 1700 79 555 107
670 210 880 88 182 195 327 282 384 60 40 79 40 87 0 10 -54 6 -459 -9 -809
-29 -687 -37 -1123 -32 -1697 9 -977 35 -1143 253 -1588 118 -242 218 -371
336 -430 114 -57 198 -47 270 33 74 82 113 199 153 467 15 94 67 418 116 720
156 957 176 1084 219 1370 136 925 250 1479 427 2075 103 349 234 649 322 741
27 28 55 49 63 47 27 -9 23 -113 -28 -738 -68 -844 -93 -1215 -119 -1760 -37
-791 -43 -1561 -15 -1840 29 -284 131 -583 256 -749 111 -148 273 -215 391
-162 53 25 73 63 73 138 -1 77 -11 119 -71 281 -28 75 -59 181 -70 235 -133
682 105 2079 521 3063 361 853 952 1571 1540 1873 269 139 428 173 775 166
160 -3 234 -9 309 -24z m24906 -230 c0 -16 -36 -22 -64 -12 -38 15 -32 21 19
21 25 0 45 -4 45 -9z m15529 -1028 c104 -105 417 -550 583 -828 403 -676 674
-1409 764 -2060 22 -161 25 -491 5 -610 -27 -161 -87 -311 -164 -407 -82 -103
-255 -212 -375 -237 -234 -48 -439 65 -624 344 -258 390 -482 1046 -550 1610
-20 171 -17 813 5 1035 43 425 116 801 213 1101 32 101 37 109 60 109 18 0 43
-18 83 -57z m-40499 -813 c384 -24 501 -64 535 -184 29 -102 65 -687 65 -1061
0 -226 -16 -479 -36 -568 -21 -92 -67 -205 -159 -387 -136 -267 -280 -472
-475 -674 -179 -184 -308 -283 -477 -363 -162 -77 -319 -88 -478 -33 -353 121
-609 535 -681 1102 -22 177 -15 508 15 683 93 544 352 1012 709 1280 91 68
247 153 327 180 99 31 375 42 655 25z m3915 -10046 c21 -32 7 -74 -24 -74 -24
0 -35 30 -26 70 8 37 27 38 50 4z m23162 -1234 c213 -35 502 -171 1038 -490
353 -210 587 -339 1000 -552 442 -228 797 -437 1340 -788 573 -371 1204 -758
1815 -1115 464 -270 724 -412 1170 -640 228 -117 498 -259 600 -317 1261 -714
2853 -1818 3640 -2524 990 -887 2017 -2527 2155 -3444 20 -128 19 -340 -1
-438 -48 -233 -210 -493 -478 -770 -376 -388 -1122 -1024 -1315 -1121 -155
-79 -424 -124 -896 -151 -347 -20 -1254 -31 -1732 -20 -877 19 -1254 59 -2513
266 -737 121 -1887 282 -3280 459 -2078 263 -3042 419 -3790 611 -345 88 -562
162 -883 298 -364 155 -541 200 -1766 447 -1142 230 -1630 345 -2025 478 -173
59 -456 165 -456 171 0 3 58 27 128 54 466 177 887 317 1886 626 742 229 1056
328 1501 471 1343 434 2130 618 3270 764 501 65 903 143 1540 302 822 204
1399 300 2320 388 408 38 461 45 544 66 157 40 259 107 309 203 21 42 27 68
30 147 11 244 -99 358 -403 422 -141 29 -555 30 -830 2 -104 -11 -255 -20
-335 -20 l-145 0 -80 43 c-46 23 -122 78 -175 124 -146 127 -510 496 -895 909
-989 1058 -1383 1433 -1790 1704 -321 213 -686 379 -990 450 -268 63 -471 80
-945 80 -699 0 -950 -36 -2850 -406 -2083 -406 -2725 -554 -3600 -833 -458
-146 -605 -186 -825 -223 -152 -25 -513 -25 -710 1 -466 60 -924 155 -1195
248 -169 58 -272 104 -553 246 -663 335 -1646 723 -2147 846 -376 93 -698 135
-1076 143 -376 8 -531 -13 -818 -108 -472 -156 -902 -483 -1370 -1043 -133
-159 -374 -481 -520 -696 -323 -474 -388 -567 -506 -725 -205 -276 -238 -326
-588 -890 -325 -525 -543 -995 -812 -1751 -177 -497 -184 -536 -184 -1139 -1
-483 3 -531 51 -677 33 -101 88 -186 170 -265 72 -70 183 -131 254 -140 65 -9
101 -35 449 -330 197 -167 340 -224 507 -203 228 29 479 154 763 380 302 240
871 764 1434 1320 662 654 986 1034 1386 1625 276 408 369 516 484 564 394
163 2335 795 3628 1181 1019 304 2139 601 3048 810 731 168 1588 378 2135 524
334 89 422 106 567 106 281 0 449 -73 1148 -502 536 -328 1345 -726 2206
-1084 505 -210 971 -375 1374 -485 140 -38 309 -88 375 -110 123 -41 236 -95
243 -116 9 -31 -75 -54 -613 -163 -1103 -224 -1780 -400 -3555 -923 -722 -214
-1347 -395 -2055 -597 -861 -245 -1423 -419 -2275 -705 -817 -274 -1312 -422
-1790 -535 -395 -93 -591 -142 -1485 -370 -407 -104 -875 -219 -1040 -256
-800 -175 -2337 -469 -3665 -699 -855 -149 -1152 -213 -1545 -336 -332 -104
-603 -165 -1120 -250 -658 -109 -943 -163 -2280 -429 -1870 -373 -2307 -446
-2975 -501 -201 -16 -1250 -24 -1455 -10 -205 13 -301 29 -482 81 -738 208
-1220 620 -1427 1219 -169 488 -112 1012 176 1622 79 167 174 330 313 539 231
345 447 603 819 975 544 543 954 871 1991 1590 294 204 517 360 1195 835 1299
911 2249 1461 4670 2700 1206 617 1886 976 2630 1387 129 71 302 165 383 208
l148 77 68 -4 c129 -7 300 -113 626 -390 291 -246 446 -358 616 -443 144 -73
206 -89 314 -81 106 8 107 7 131 -75 28 -96 34 -97 189 -34 60 25 113 45 116
45 4 0 17 -26 29 -57 58 -144 109 -215 198 -272 80 -50 163 -72 308 -81 165
-10 183 -18 213 -99 18 -51 26 -61 45 -61 32 0 48 28 92 157 21 59 39 110 41
112 1 2 54 -45 115 -105 70 -68 155 -138 223 -183 121 -81 256 -151 292 -151
20 0 23 5 23 40 0 21 -5 62 -11 90 -22 102 15 84 163 -80 122 -134 186 -175
274 -175 55 0 67 4 102 33 23 17 50 32 61 32 11 0 37 -21 61 -49 23 -27 48
-52 56 -55 9 -3 29 9 50 29 19 19 40 35 46 35 7 0 41 -18 77 -40 82 -49 162
-70 267 -70 67 0 84 3 98 19 15 16 16 25 7 59 -13 47 -7 69 21 78 57 18 190
-34 413 -163 269 -154 385 -203 487 -203 98 0 142 32 212 154 65 112 98 115
162 16 45 -71 65 -84 82 -54 14 25 51 11 127 -47 108 -82 158 -104 242 -104
83 0 105 14 128 81 21 63 29 63 161 1 172 -80 273 -108 416 -114 235 -10 815
53 1233 133 263 51 589 177 1070 414 271 133 409 214 680 399 368 251 400 267
560 282 138 13 154 17 184 50 19 21 42 32 81 39 65 12 104 37 149 96 18 24 40
44 49 44 8 0 34 -18 58 -40 70 -64 104 -49 123 53 14 76 61 146 181 271 121
126 196 179 280 200 85 22 162 66 315 181 226 170 289 185 302 73 8 -77 12
-88 34 -88 37 0 69 91 79 231 5 66 15 133 22 147 18 37 56 40 110 8 53 -30
139 -56 188 -56 97 0 159 39 226 140 65 100 329 350 369 350 8 0 15 -10 17
-22 2 -13 10 -24 20 -26 27 -5 85 55 203 213 123 165 178 221 254 260 88 44
163 54 278 35z m-957 -3814 c420 -56 793 -207 1227 -497 263 -175 523 -381
918 -723 273 -238 564 -478 805 -666 405 -316 631 -536 657 -639 5 -19 -1 -31
-30 -57 -83 -77 -348 -106 -534 -58 -95 24 -231 96 -343 181 -247 188 -423
279 -935 480 -504 198 -908 368 -1505 633 -698 310 -1001 439 -1463 620 -166
65 -356 141 -422 170 -245 107 -462 228 -485 270 -8 16 -4 21 33 34 143 54
1011 229 1337 270 86 10 620 -3 740 -18z m-13098 -247 c259 -32 684 -123 1293
-275 368 -92 518 -134 534 -149 20 -19 -36 -76 -229 -230 -533 -427 -1074
-933 -2275 -2125 -1201 -1193 -1417 -1394 -1760 -1635 -93 -65 -280 -198 -415
-295 -399 -287 -550 -383 -742 -474 -167 -79 -258 -96 -299 -55 -19 19 -20 28
-15 88 23 224 96 451 310 955 223 525 759 1670 1103 2356 273 546 373 710 574
951 474 567 697 734 1119 838 305 76 504 88 802 50z m3398 -619 c71 -15 283
-80 278 -86 -3 -2 -117 -37 -254 -78 -234 -70 -658 -210 -983 -325 -79 -28
-146 -49 -149 -47 -15 16 133 155 331 310 202 157 289 203 438 232 83 15 250
12 339 -6z"/>
<path d="M28772 31705 c-44 -19 -53 -47 -63 -214 -14 -233 -49 -311 -142 -311
-75 0 -149 61 -279 227 -170 219 -230 253 -308 175 -51 -51 -64 -116 -57 -287
6 -145 29 -251 77 -354 70 -149 205 -293 336 -358 74 -36 83 -38 174 -38 66 0
111 6 147 18 214 74 412 513 373 825 -29 225 -144 367 -258 317z"/>
<path d="M25142 31608 c-71 -89 -113 -313 -92 -491 24 -205 77 -336 195 -484
187 -234 386 -338 521 -272 59 28 227 205 302 318 197 294 282 662 177 767
-80 80 -228 -36 -398 -312 -97 -157 -172 -207 -280 -184 -29 6 -67 19 -84 30
-74 45 -147 187 -210 410 -39 141 -57 186 -80 212 -19 21 -37 23 -51 6z"/>
<path d="M27154 31611 c-32 -14 -59 -58 -84 -136 -18 -55 -24 -100 -28 -216
-7 -236 31 -427 168 -843 152 -463 167 -543 136 -732 -23 -144 -21 -224 4
-252 49 -52 119 -70 192 -48 102 30 202 138 258 278 109 276 70 564 -142 1047
-164 373 -222 513 -259 627 -43 130 -96 227 -142 257 -34 22 -76 29 -103 18z"/>
<path d="M26935 29310 c-119 -38 -218 -144 -217 -231 1 -87 68 -111 307 -113
153 -1 209 10 262 50 68 52 66 164 -5 237 -73 75 -217 98 -347 57z"/>
</g>
</svg>
